<?xml version="1.0" encoding="utf-8"?>
<!-- Generator: Adobe Illustrator 23.0.1, SVG Export Plug-In . SVG Version: 6.00 Build 0)  -->
<svg version="1.1" id="Layer_1" xmlns="http://www.w3.org/2000/svg" xmlns:xlink="http://www.w3.org/1999/xlink" x="0px" y="0px"
	 viewBox="0 0 512 512" style="enable-background:new 0 0 512 512;" xml:space="preserve">
<style type="text/css">
	.st0{display:none;fill:#FFFFFF;}
	.st1{fill:#F50057;}
	.st2{fill:#64DD17;}
	.st3{fill:#EA80FC;}
	.st4{fill:#FFEA00;}
	.st5{fill:#00B0FF;}
	.st6{fill:#FFFFFF;}
	.st7{fill:#84FFFF;}
</style>
<title>Artboard 3 copy 26</title>
<circle class="st0" cx="256" cy="256" r="256"/>
<path class="st1" d="M508.922,211.5566c3.2281,18.1677-13.8135,47.8968-41.8909,81.4545
	c-8.7415-23.4799-18.7668-46.4621-30.0293-68.8422c2.9294-24.9183,4.4331-49.9838,4.5044-75.0733
	C479.5684,171.2422,505.6938,193.3138,508.922,211.5566z"/>
<path class="st2" d="M467.0311,293.0111c15.0146,41.1402,20.7202,75.0733,11.4862,90.9138
	c-9.234,15.8405-41.3654,27.8522-84.1572,35.5097c8.3114-23.6053,15.3533-47.6378,21.0956-71.9953
	C433.6182,330.2422,450.8355,312.0723,467.0311,293.0111z"/>
<path class="st3" d="M441.6563,149.2457c-0.0713,25.0895-1.575,50.155-4.5044,75.0733
	c-18.5634-37.4436-39.4751-73.6762-62.6111-108.4809C397.502,125.7486,419.9068,136.9007,441.6563,149.2457z"/>
<path class="st4" d="M437.1519,224.1689c11.2625,22.3801,21.2878,45.3623,30.0293,68.8422
	c-16.2444,19.0656-33.5112,37.2349-51.7255,54.4282C425.3031,306.8524,432.5499,265.6784,437.1519,224.1689z"/>
<path class="st5" d="M421.3865,59.9085c14.1888,11.8616,20.1947,45.5695,20.2698,89.3372
	c-21.7465-12.3961-44.1514-23.5985-67.1155-33.5578c-13.9013-20.8306-28.9393-40.8804-45.044-60.0587
	C372.9642,47.8968,407.1977,48.0469,421.3865,59.9085z"/>
<path class="st6" d="M437.1519,224.1689c-4.602,41.5095-11.8488,82.6835-21.6962,123.2704
	c-30.3236,28.8544-62.4445,55.7592-96.1689,80.5536c-41.6995,2.6276-83.5228,2.6276-125.2223,0
	c-33.5848-24.7907-65.5555-51.6962-95.7185-80.5536c-9.8391-40.6177-17.1107-81.8141-21.7713-123.3455
	c18.5416-37.4158,39.4285-73.6237,62.5361-108.4059c38.2987-16.7271,77.6153-31.0195,117.715-42.7918
	c40.0756,11.7722,79.3668,26.0647,117.6399,42.7918C397.6273,150.4905,418.5645,186.7231,437.1519,224.1689z"/>
<path class="st7" d="M415.4557,347.4393c-5.7423,24.3575-12.7842,48.39-21.0956,71.9953
	c-24.8485,4.2259-49.911,7.0832-75.0733,8.5583C353.0113,403.1985,385.1321,376.2937,415.4557,347.4393z"/>
<path class="st5" d="M394.3601,419.4346c-15.0146,41.0651-32.2815,70.7191-49.6234,77.0252
	c-17.3419,6.3062-49.6235-5.2551-87.5355-27.1015c21.4387-12.6393,42.1649-26.4483,62.0856-41.3654
	C344.4491,426.5178,369.5116,423.6605,394.3601,419.4346z"/>
<path class="st7" d="M329.8721,55.4792c16.1047,19.1782,31.1427,39.2281,45.044,60.0586
	C336.643,98.8107,297.3519,84.5183,257.2762,72.746C281.1406,65.6666,305.3757,59.9025,329.8721,55.4792z"/>
<path class="st2" d="M256.9009,0c18.468,0,45.044,21.9965,72.9713,55.4792c-24.6255,4.4586-48.9861,10.2738-72.9713,17.417
	c-23.9109-7.1357-48.1963-12.9501-72.746-17.417C212.0821,21.9965,238.4328,0,256.9009,0z"/>
<path class="st3" d="M194.2897,427.993c41.6995,2.6276,83.5228,2.6276,125.2223,0c-20.0911,14.9336-40.9938,28.7426-62.6111,41.3654
	C235.2835,456.7355,214.3809,442.9265,194.2897,427.993z"/>
<path class="st1" d="M194.2897,427.993c20.0911,14.9336,40.9938,28.7426,62.6112,41.3654
	c-37.5367,21.8464-70.1936,33.4076-87.5355,27.1015c-17.3419-6.3061-34.6088-35.9601-49.6235-77.0252
	C144.417,423.641,169.3031,426.4983,194.2897,427.993z"/>
<path class="st4" d="M184.1548,55.4792c24.6255,4.4586,48.9861,10.2738,72.9713,17.417
	c-40.2018,11.7602-79.619,26.0527-118.0153,42.7918C153.0077,94.8063,168.0456,74.7062,184.1548,55.4792z"/>
<path class="st1" d="M184.1548,55.4792c-16.1047,19.1782-31.1419,39.2281-45.044,60.0586
	c-22.9499,9.99-45.3533,21.1917-67.1155,33.5578c0-43.7677,6.156-77.4757,20.2698-89.3372S140.7625,47.8968,184.1548,55.4792z"/>
<path class="st4" d="M194.2897,427.993c-24.9866-1.4947-49.8727-4.352-74.5478-8.5583
	c-8.481-23.5768-15.6243-47.6137-21.3959-71.9953C128.5811,376.3043,160.6276,403.2098,194.2897,427.993z"/>
<path class="st2" d="M98.346,347.4393c5.7739,24.3568,12.9179,48.3682,21.3959,71.9203
	c-43.0921-7.5074-75.0733-19.5191-84.5326-35.5097c-9.4592-15.9906-3.3783-49.7736,11.5613-90.9138
	C62.9235,312.0595,80.1423,330.2565,98.346,347.4393z"/>
<path class="st3" d="M139.1109,115.688c-23.1361,34.8047-44.0478,71.0374-62.6111,108.4809
	c-2.8543-24.9251-4.358-49.9861-4.5044-75.0733C93.7606,136.7806,116.1639,125.6292,139.1109,115.688z"/>
<path class="st7" d="M76.5748,224.1689c4.6643,41.5058,11.9352,82.6775,21.7713,123.2704
	c-18.2038-17.1828-35.4226-35.3798-51.5754-54.5032C55.4386,269.4854,65.3881,246.528,76.5748,224.1689z"/>
<path class="st5" d="M72.0704,149.2457c0.1464,25.0872,1.6501,50.1482,4.5044,75.0733
	c-11.2655,22.3794-21.29,45.3615-30.0293,68.8422c-28.0774-33.5578-45.044-63.2868-41.966-81.4545
	S34.0082,171.2422,72.0704,149.2457z"/>
</svg>
