<svg id="Layer_1" data-name="Layer 1" xmlns="http://www.w3.org/2000/svg" viewBox="0 0 60 60"><defs><style>.cls-1{fill:#f8f8f8;fill-rule:evenodd;}</style></defs><title>diamonds_pattern</title><g id="Page-1"><g id="morphing-diamonds"><path id="Combined-Shape" class="cls-1" d="M54.63,0l.83.83L54,2.24,51.8,0ZM5.37,0,4.54.83,6,2.24,8.2,0ZM49,0l3.66,3.66L51.21,5.07,46.14,0ZM11,0,7.37,3.66,8.79,5.07,13.86,0ZM43.31,0,49.8,6.49,48.38,7.9,40.49,0ZM16.69,0,10.2,6.49,11.62,7.9,19.51,0Zm21,0L47,9.31l-1.41,1.42L34.83,0ZM22.34,0,13,9.31l1.41,1.42L25.17,0ZM32,0,44.14,12.14l-1.41,1.42L30,.83,17.27,13.56l-1.41-1.42L28,0ZM.28,0l28,28-1.41,1.41L0,2.54V0ZM0,5.37,25.46,30.83,24,32.24,0,8.2V5.37ZM0,11,22.63,33.66l-1.42,1.41L0,13.86V11Zm0,5.66,19.8,19.8L18.38,37.9,0,19.51V16.69Zm0,5.65,17,17-1.41,1.42L0,25.17V22.34ZM0,28,14.14,42.14l-1.41,1.42L0,30.83V28Zm0,5.66L11.31,45,9.9,46.38,0,36.49V33.66Zm0,5.65L8.49,47.8,7.07,49.21,0,42.14V39.31ZM0,45l5.66,5.66L4.24,52,0,47.8V45Zm0,5.66,2.83,2.83L1.41,54.87,0,53.46V50.63ZM54.63,60,30,35.37,5.37,60H8.2L30,38.2,51.8,60ZM49,60,30,41,11,60h2.83L30,43.86,46.14,60Zm-5.66,0L30,46.69,16.69,60h2.82L30,49.51,40.49,60Zm-5.65,0L30,52.34,22.34,60h2.83L30,55.17,34.83,60ZM32,60l-2-2-2,2ZM59.72,0l-28,28,1.41,1.41L60,2.54V0ZM60,5.37,34.54,30.83,36,32.24l24-24V5.37ZM60,11,37.37,33.66l1.42,1.41L60,13.86V11Zm0,5.66L40.2,36.49l1.42,1.41L60,19.51V16.69Zm0,5.65-17,17,1.41,1.42L60,25.17V22.34ZM60,28,45.86,42.14l1.41,1.42L60,30.83V28Zm0,5.66L48.69,45l1.41,1.41L60,36.49V33.66Zm0,5.65L51.51,47.8l1.42,1.41L60,42.14V39.31ZM60,45l-5.66,5.66L55.76,52,60,47.8V45Zm0,5.66-2.83,2.83,1.42,1.41L60,53.46V50.63ZM39.9,16.38,41.31,15,30,3.66,18.69,15l1.41,1.41L30,6.49l9.9,9.89Zm-2.83,2.83,1.42-1.41L30,9.31,21.51,17.8l1.42,1.41L30,12.14l7.07,7.07ZM34.24,22l1.42-1.41L30,15l-5.66,5.66L25.76,22,30,17.8,34.24,22Zm-2.83,2.83,1.42-1.41L30,20.63l-2.83,2.83,1.42,1.41L30,23.46l1.41,1.41ZM56.87,59.41,58.28,58,30,29.72,1.72,58l1.41,1.41L30,32.54,56.87,59.41Z"/></g></g></svg>