<?xml version="1.0" encoding="utf-8"?>
<!-- Generator: Adobe Illustrator 23.0.1, SVG Export Plug-In . SVG Version: 6.00 Build 0)  -->
<svg version="1.1" id="Layer_1" xmlns="http://www.w3.org/2000/svg" xmlns:xlink="http://www.w3.org/1999/xlink" x="0px" y="0px"
	 viewBox="0 0 68.2 68.2" style="enable-background:new 0 0 68.2 68.2;" xml:space="preserve">
<style type="text/css">
	.st0{display:none;fill:#FFFFFF;}
	.st1{fill:#F50057;}
	.st2{fill:#64DD17;}
	.st3{fill:#EA80FC;}
	.st4{fill:#FFEA00;}
	.st5{fill:#00B0FF;}
	.st6{fill:#FFFFFF;}
	.st7{fill:#84FFFF;}
	.st8{font-family:'UnicaOne-Regular';}
	.st9{font-size:13.74px;}
	.st10{font-size:7.83px;}
</style>
<title>Artboard 3 copy 26</title>
<circle class="st0" cx="34.1" cy="34.1" r="34.1"/>
<path class="st1" d="M67.79,28.18c0.43,2.42-1.84,6.38-5.58,10.85c-1.1644-3.1276-2.4998-6.1889-4-9.17
	c0.3902-3.3192,0.5905-6.658,0.6-10C63.88,22.81,67.36,25.75,67.79,28.18z"/>
<path class="st2" d="M62.21,39.03c2,5.48,2.76,10,1.53,12.11s-5.51,3.71-11.21,4.73c1.1071-3.1443,2.0451-6.3455,2.81-9.59
	C57.7593,43.9893,60.0527,41.569,62.21,39.03z"/>
<path class="st3" d="M58.83,19.88c-0.0095,3.342-0.2098,6.6808-0.6,10c-2.4727-4.9876-5.2582-9.8139-8.34-14.45
	C52.9485,16.7501,55.9329,18.2356,58.83,19.88z"/>
<path class="st4" d="M58.23,29.86c1.5002,2.9811,2.8356,6.0424,4,9.17c-2.1638,2.5396-4.4638,4.9598-6.89,7.25
	C56.6517,40.8737,57.617,35.3892,58.23,29.86z"/>
<path class="st5" d="M56.13,7.98c1.89,1.58,2.69,6.07,2.7,11.9c-2.8967-1.6512-5.8811-3.1434-8.94-4.47
	c-1.8517-2.7747-3.8548-5.4454-6-8C49.68,6.38,54.24,6.4,56.13,7.98z"/>
<path class="st6" d="M58.23,29.86c-0.613,5.5292-1.5783,11.0137-2.89,16.42c-4.0392,3.8435-8.3178,7.4273-12.81,10.73
	c-5.5545,0.35-11.1255,0.35-16.68,0c-4.4736-3.3022-8.7322-6.8861-12.75-10.73c-1.3106-5.4104-2.2792-10.8979-2.9-16.43
	c2.4698-4.9839,5.252-9.8069,8.33-14.44c5.1015-2.2281,10.3386-4.1319,15.68-5.7c5.3382,1.5681,10.5719,3.4719,15.67,5.7
	C52.9652,20.0458,55.7541,24.8721,58.23,29.86z"/>
<path class="st7" d="M55.34,46.28c-0.7649,3.2445-1.7029,6.4457-2.81,9.59c-3.3099,0.5629-6.6483,0.9435-10,1.14
	C47.0222,53.7073,51.3008,50.1235,55.34,46.28z"/>
<path class="st5" d="M52.53,55.87c-2,5.47-4.3,9.42-6.61,10.26s-6.61-0.7-11.66-3.61c2.8557-1.6836,5.6165-3.523,8.27-5.51
	C45.8817,56.8135,49.2201,56.4329,52.53,55.87z"/>
<path class="st7" d="M43.94,7.39c2.1452,2.5546,4.1483,5.2253,6,8c-5.0981-2.2281-10.3318-4.1319-15.67-5.7
	C37.4488,8.747,40.677,7.9792,43.94,7.39z"/>
<path class="st2" d="M34.22,0c2.46,0,6,2.93,9.72,7.39c-3.2802,0.5939-6.5251,1.3685-9.72,2.32
	c-3.185-0.9505-6.4199-1.725-9.69-2.32C28.25,2.93,31.76,0,34.22,0z"/>
<path class="st3" d="M25.88,57.01c5.5545,0.35,11.1255,0.35,16.68,0c-2.6762,1.9892-5.4605,3.8286-8.34,5.51
	C31.3405,60.8386,28.5562,58.9992,25.88,57.01z"/>
<path class="st1" d="M25.88,57.01c2.6762,1.9892,5.4605,3.8286,8.34,5.51c-5,2.91-9.35,4.45-11.66,3.61s-4.61-4.79-6.61-10.26
	C19.2368,56.4303,22.5517,56.8109,25.88,57.01z"/>
<path class="st4" d="M24.53,7.39c3.2802,0.5939,6.5251,1.3685,9.72,2.32c-5.355,1.5665-10.6055,3.4703-15.72,5.7
	C20.3811,12.6285,22.3842,9.9511,24.53,7.39z"/>
<path class="st1" d="M24.53,7.39c-2.1452,2.5546-4.1482,5.2253-6,8c-3.057,1.3307-6.0412,2.8228-8.94,4.47
	c0-5.83,0.82-10.32,2.7-11.9S18.75,6.38,24.53,7.39z"/>
<path class="st4" d="M25.88,57.01c-3.3283-0.1991-6.6432-0.5797-9.93-1.14c-1.1297-3.1405-2.0812-6.3423-2.85-9.59
	C17.1274,50.1249,21.3961,53.7088,25.88,57.01z"/>
<path class="st2" d="M13.1,46.28c0.7691,3.2444,1.7207,6.4428,2.85,9.58c-5.74-1-10-2.6-11.26-4.73S4.24,44.5,6.23,39.02
	C8.3816,41.5673,10.6752,43.9912,13.1,46.28z"/>
<path class="st3" d="M18.53,15.41c-3.0818,4.6361-5.8673,9.4624-8.34,14.45c-0.3802-3.3201-0.5805-6.6583-0.6-10
	C12.4892,18.2196,15.4734,16.7342,18.53,15.41z"/>
<path class="st7" d="M10.2,29.86c0.6213,5.5287,1.5898,11.0129,2.9,16.42c-2.4248-2.2888-4.7184-4.7127-6.87-7.26
	C7.3846,35.8963,8.7099,32.8383,10.2,29.86z"/>
<path class="st5" d="M9.6,19.88c0.0195,3.3417,0.2198,6.6799,0.6,10c-1.5006,2.981-2.8359,6.0423-4,9.17
	c-3.74-4.47-6-8.43-5.59-10.85S4.53,22.81,9.6,19.88z"/>
<text transform="matrix(1 0 0 1 15.79 37.63)" class="st8 st9">image</text>
<text transform="matrix(1 0 0 1 25.64 46.5)" class="st8 st10">2020</text>
</svg>
