<svg xmlns="http://www.w3.org/2000/svg" viewBox="0 0 50.67 13.7"><defs><style>.cls-1{isolation:isolate;}</style></defs><title>Asset 1</title><g id="Layer_2" data-name="Layer 2"><g id="Layer_1-2" data-name="Layer 1"><g class="cls-1"><path d="M1.41,13.4H0V.3H1.41Z"/><path d="M7.66,13.4H6.25V.3h.6l.5,1.29A3.43,3.43,0,0,1,8.46.43,2.72,2.72,0,0,1,10,0a2.45,2.45,0,0,1,2.6,1.47A2.93,2.93,0,0,1,15.09,0a2.5,2.5,0,0,1,2.84,2.82V13.4H16.52V2.82c0-1.07-.48-1.61-1.45-1.61a2.25,2.25,0,0,0-1.56.68,1.92,1.92,0,0,0-.72,1.33V13.4H11.38V2.82c0-1.07-.48-1.61-1.45-1.61a2.3,2.3,0,0,0-1.56.65,1.81,1.81,0,0,0-.71,1.3Z"/><path d="M28.81,13.4h-.6l-.53-1.29a3.34,3.34,0,0,1-1.11,1.16,2.82,2.82,0,0,1-1.51.43c-1.93,0-2.9-.94-2.9-2.82v-2c0-1.88,1-2.82,2.9-2.82H27.4V2.74a1.45,1.45,0,0,0-.46-1.13,2,2,0,0,0-1.37-.4q-1.8,0-1.8,1.53V3.93H22.36V2.82a2.73,2.73,0,0,1,.8-2.09A3.44,3.44,0,0,1,25.57,0,3.5,3.5,0,0,1,28,.73a2.67,2.67,0,0,1,.82,2.09ZM27.4,7.25H25.06a1.38,1.38,0,0,0-1.17.43,1.93,1.93,0,0,0-.32,1.18v2a2,2,0,0,0,.32,1.19,1.41,1.41,0,0,0,1.17.42,2.31,2.31,0,0,0,1.57-.65,2,2,0,0,0,.77-1.3Z"/><path d="M36.12,8V6.75h3.67v4.13A2.64,2.64,0,0,1,39,13a3.61,3.61,0,0,1-2.47.74A3.69,3.69,0,0,1,34,13a2.59,2.59,0,0,1-.85-2.08V2.82A2.67,2.67,0,0,1,34,.73,3.61,3.61,0,0,1,36.44,0a3.69,3.69,0,0,1,2.5.73,2.62,2.62,0,0,1,.85,2.09V3.93H38.38V2.82c0-1.07-.64-1.61-1.91-1.61s-1.92.54-1.92,1.61v8.06c0,1.07.64,1.61,1.92,1.61s1.91-.54,1.91-1.61V8Z"/><path d="M49.26,10.88V9.77h1.41v1.11A2.64,2.64,0,0,1,49.84,13a3.62,3.62,0,0,1-2.48.74A3.68,3.68,0,0,1,44.87,13,2.59,2.59,0,0,1,44,10.88V2.82A2.64,2.64,0,0,1,44.85.73,3.61,3.61,0,0,1,47.32,0a3.69,3.69,0,0,1,2.5.73,2.62,2.62,0,0,1,.85,2.09V7.25H45.43v3.63c0,1.07.64,1.61,1.91,1.61S49.26,12,49.26,10.88ZM45.43,2.82V6h3.83V2.82c0-1.07-.64-1.61-1.92-1.61S45.43,1.75,45.43,2.82Z"/></g></g></g></svg>